<?xml version="1.0"?>
<svg width="40" height="40" xmlns="http://www.w3.org/2000/svg" xmlns:svg="http://www.w3.org/2000/svg" xmlns:xlink="http://www.w3.org/1999/xlink">
 <defs>
  <symbol height="24px" id="svg_1" viewBox="0 -960 960 960" fill="rgba(255, 255, 255, 0.03)" width="24px" xmlns="http://www.w3.org/2000/svg">
   <path d="m400,-120q-66,0 -113,-47t-47,-113q0,-66 47,-113t113,-47q23,0 42.5,5.5t37.5,16.5l0,-422l240,0l0,160l-160,0l0,400q0,66 -47,113t-113,47z"/>
  </symbol>
  <symbol id="svg_8" viewBox="0 0 2601 2335.392" fill="rgba(255, 255, 255, 0.03)" xmlns="http://www.w3.org/2000/svg">
   <path d="m1395,2111q-136,0 -208.5,-94.5t-72.5,-257.5q0,-93 8.5,-187t33.5,-185q-69,74 -147.5,136.5t-157,109q-78.5,46.5 -147.5,72.5t-119,26q-87,0 -155.5,-75t-107.5,-196.5q-39,-121.5 -39,-260.5q0,-135 46,-256t129,-207q53,-55 144,-104t196,-98q105,-49 198,-104q78,-46 148,-95t136.5,-91q66.5,-42 131,-68t130.5,-26q95,0 168,55t125.5,142q52.5,87 84.5,183q203,109 295.5,262t92.5,357q0,145 -62,292t-167,275l-88,-81q89,-110 143,-236t54,-250q0,-181 -85,-312.5t-277,-226.5q-46,-157 -123.5,-251t-160.5,-94q-63,0 -119,24.5t-112,63.5q-56,39 -118,85t-137,90q-69,40 -145.5,77.5t-149.5,73q-73,35.5 -131,69.5t-90,67q-66,69 -101.5,168.5t-35.5,215.5q0,107 23,202.5t65.5,155q42.5,59.5 101.5,59.5q47,0 124.5,-37.5t163,-97.5q85.5,-60 158.5,-130t110,-134q36,-62 65.5,-144t56.5,-166q27,-84 55,-156t61,-116q33,-44 74,-44q60,0 60,86q0,57 -26.5,138.5t-64,170q-37.5,88.5 -72.5,167.5t-53,132q-26,78 -41.5,155.5t-22.5,156.5q-7,79 -7,162q0,110 38,173.5t123,63.5q51,0 130.5,-23.5t163.5,-69.5l67,94q-99,56 -193,85t-168,29zm451,139l-340,-535l89,-45l267,419q48,-50 116.5,-107.5t171.5,-118.5l-337,-324l89,-51l415,395q-126,68 -212,129t-147,119q-61,58 -112,119zm-370,-438q-55,0 -55,-42q0,-68 148.5,-182.5t455.5,-283.5l44,34q-30,52 -70.5,107.5t-90.5,111.5l-34,-32q-25,13 -65.5,36.5t-84,50q-43.5,26.5 -79.5,50.5t-53,39l30,65q-48,23 -84,34.5t-62,11.5z"/>
  </symbol>
 </defs>
 <g class="layer">
  <title>Layer 1</title>
  <use id="svg_5" transform="matrix(0.535493 0 0 0.535493 24.5541 21.979)" xlink:href="#svg_1"/>
  <use id="svg_9" transform="matrix(0.456128 0 0 0.456128 20.9694 0.970605)" xlink:href="#svg_8"/>
  <use id="svg_10" transform="matrix(0.456128 0 0 0.456128 2.6644 19.1456)" xlink:href="#svg_8"/>
  <use id="svg_11" transform="matrix(0.535493 0 0 0.535493 5.0491 3.259)" xlink:href="#svg_1"/>
 </g>
</svg>