<svg viewBox="0 0 2600 2326.9506" fill='#16d560' xmlns="http://www.w3.org/2000/svg"><path d="M1397 2096q-133 0-196-85.5t-63-258.5q0-89 14-197.5t49-262.5q-62 85-141.5 162T894 1589.5q-86 58.5-166.5 92.5T584 1716q-77 0-143.5-73t-107-192Q293 1332 293 1194q0-129 44-245t125-201q55-57 148-105.5t198-96Q913 499 1002 445q72-44 139.5-93t133-93q65.5-44 132-71.5T1542 160q75 0 141 43.5T1805.5 333q56.5 86 101.5 214 187 94 288 250t101 350q0 137-59.5 284T2068 1708l-60-53q98-118 153-252t55-256q0-178-96.5-318T1841 602q-57-176-134-269t-165-93q-57 0-122 30t-131.5 74.5q-66.5 44.5-129 90.5T1044 513q-43 26-117 61.5T771 650q-82 40-150.5 79T520 802q-70 75-108.5 177T373 1194q0 117 29.5 217.5T480 1574q48 62 104 62t131.5-34.5q75.5-34.5 157-93.5t157-135q75.5-76 130.5-158 42-63 73-142.5t56-160.5q25-81 49.5-149t53.5-110q29-42 68-42 42 0 42 66 0 61-28.5 144T1405 993q-40 89-75 169t-48 134q-21 91-35.5 171.5t-21.5 151q-7 70.5-7 133.5 0 143 41 203.5t138 60.5q66 0 142-24t155-70l45 67q-91 52-178.5 79.5T1397 2096zm450 144l-336-532 71-37 277 436q51-53 128.5-114t186.5-127l-355-340 72-42 416 397q-118 66-202.5 125.5t-146 116.5q-61.5 57-111.5 117zm-359-436q-54 0-54-37 0-67 140.5-175t444.5-275l39 30q-29 49-67 100t-83 99l-37-29q-25 13-66.5 37.5T1718 1607q-45 28-82.5 53t-54.5 40l33 64q-48 23-76 31.5t-50 8.5z"/></svg>